<svg width="3256" height="546" viewBox="0 0 3256 546" fill="none" xmlns="http://www.w3.org/2000/svg">
<path d="M385.921 132.609V62.5312H605.804V132.609H531.663V418H460.062V132.609H385.921ZM629.549 418V128.547H698.612V160.539C710.461 145.305 726.541 134.81 746.854 129.055C753.963 127.023 761.073 126.008 768.182 126.008H786.463L770.721 194.055C749.393 194.393 730.942 203.703 715.37 221.984C704.198 235.188 698.612 248.898 698.612 263.117V418H629.549ZM805.638 341.32V128.547H874.701V333.195C875.378 346.06 883.164 352.661 898.06 353V420.539C864.883 420.539 838.985 407.505 820.365 381.438C810.547 367.557 805.638 354.185 805.638 341.32ZM921.42 420.539V353C935.977 351.307 943.933 344.706 945.287 333.195V128.547H1014.35V341.32C1014.35 357.232 1006.9 373.312 992.005 389.562C973.047 409.875 949.519 420.201 921.42 420.539ZM1038.6 341.828L1101.57 330.148C1101.57 341.32 1107.33 349.276 1118.84 354.016C1122.9 355.37 1126.62 356.216 1130.01 356.555V420.539C1090.74 420.539 1063.49 406.659 1048.25 378.898C1041.82 367.388 1038.6 355.031 1038.6 341.828ZM1041.65 207.766C1041.65 176.281 1056.38 152.922 1085.83 137.688C1100.39 129.901 1114.77 126.008 1128.99 126.008V188.977C1112.4 189.315 1104.11 195.578 1104.11 207.766C1104.11 220.63 1119.68 231.971 1150.83 241.789C1162.34 245.513 1175.88 249.068 1191.45 252.453C1214.81 256.854 1231.4 269.888 1241.22 291.555C1246.3 302.727 1248.84 315.083 1248.84 328.625C1248.84 363.833 1234.96 389.732 1207.2 406.32C1191.28 415.799 1173.17 420.539 1152.86 420.539V356.555C1164.71 356.555 1173.51 352.661 1179.27 344.875C1181.97 341.151 1183.33 337.089 1183.33 332.688C1183.33 322.193 1170.46 313.052 1144.74 305.266C1140.67 304.25 1134.41 302.557 1125.95 300.188C1108 295.448 1095.65 291.555 1088.88 288.508C1064.16 275.982 1049.27 257.531 1044.19 233.156C1042.5 225.031 1041.65 216.568 1041.65 207.766ZM1151.84 188.977L1152.35 126.008C1182.82 126.008 1207.37 137.18 1225.99 159.523C1237.83 174.081 1243.76 189.484 1243.76 205.734L1181.3 216.398C1181.3 201.164 1173.17 192.193 1156.92 189.484C1154.89 189.146 1153.2 188.977 1151.84 188.977ZM1260.9 194.055V128.547H1296.45V54.4062H1364.5V128.547H1398.01V194.562H1364.5V329.133C1365.17 341.32 1371.44 347.583 1383.29 347.922H1398.01L1413.25 418H1382.78C1338.43 418 1311.35 401.242 1301.53 367.727C1298.14 355.539 1296.45 340.982 1296.45 324.055V194.055H1260.9ZM2017.83 418V62.5312H2089.43V418H2017.83ZM2116.85 418V346.398C2124.3 346.398 2131.24 343.352 2137.67 337.258C2142.41 331.841 2144.95 325.409 2145.29 317.961V162.57C2145.29 155.799 2142.41 149.198 2136.66 142.766C2131.24 137.349 2124.64 134.471 2116.85 134.133V62.5312C2154.43 62.5312 2182.87 79.2891 2202.16 112.805C2211.98 130.07 2216.89 146.659 2216.89 162.57V317.961C2216.89 356.555 2199.79 385.331 2165.6 404.289C2148.67 413.43 2132.42 418 2116.85 418ZM2252.31 418V128.547H2321.38V160.539C2333.23 145.305 2349.31 134.81 2369.62 129.055C2376.73 127.023 2383.84 126.008 2390.95 126.008H2409.23L2393.49 194.055C2372.16 194.393 2353.71 203.703 2338.14 221.984C2326.96 235.188 2321.38 248.898 2321.38 263.117V418H2252.31ZM2434.5 87.4141C2434.5 73.5339 2440.76 63.0391 2453.29 55.9297C2459.04 52.5443 2465.14 50.8516 2471.57 50.8516C2485.79 50.8516 2496.45 57.1146 2503.56 69.6406C2506.61 75.3958 2508.13 81.3203 2508.13 87.4141C2508.13 101.633 2501.87 112.297 2489.34 119.406C2483.59 122.453 2477.66 123.977 2471.57 123.977C2457.01 123.977 2446.18 117.544 2439.07 104.68C2436.02 99.263 2434.5 93.5078 2434.5 87.4141ZM2438.05 418V143.781H2506.1V418H2438.05ZM2531.88 128.547H2607.54L2681.68 347.922L2658.83 418H2620.24L2531.88 128.547ZM2652.74 198.117L2674.06 128.547H2749.73L2695.39 301.711H2688.79L2652.74 198.117ZM2767.38 339.289V206.242C2767.72 189.654 2775.33 173.404 2790.23 157.492C2808.51 138.534 2830.86 128.885 2857.26 128.547V192.531C2847.44 192.531 2840.67 196.763 2836.95 205.227C2835.93 207.258 2835.43 209.12 2835.43 210.812V236.203H2911.09V211.32C2910.75 198.794 2901.95 192.531 2884.68 192.531V128.547C2909.4 128.547 2931.06 137.01 2949.68 153.938C2965.93 168.833 2974.23 186.099 2974.57 205.734V301.711H2835.43V339.289C2837.8 349.107 2845.24 354.523 2857.77 355.539V418C2825.95 418 2800.73 404.966 2782.11 378.898C2772.29 365.018 2767.38 351.815 2767.38 339.289ZM2884.68 418V356.047C2902.96 355.708 2914.64 347.076 2919.72 330.148L2975.07 350.969C2970 372.635 2957.13 390.07 2936.48 403.273C2920.57 413.091 2903.3 418 2884.68 418Z" fill="#FFC800"/>
<path fill-rule="evenodd" clip-rule="evenodd" d="M1616.14 201.175C1621.78 229.232 1609.59 260.018 1584.38 275.984C1553.65 295.449 1515.2 285.515 1498.5 253.796C1481.81 222.077 1493.19 180.584 1523.93 161.119C1549.14 145.153 1579.54 148.966 1598.86 168.357L1728.37 86.3378C1768.95 60.6365 1816.74 72.9836 1838.79 114.865C1860.83 156.746 1846.68 208.32 1806.1 234.021L1631.2 344.791C1608.18 359.369 1600.53 387.233 1613.04 410.989C1625.54 434.745 1651.36 441.415 1674.38 426.837L1866.55 305.134L1847.09 300.107C1837.51 297.632 1832.04 287.242 1834.88 276.901C1837.72 266.56 1847.78 260.184 1857.37 262.66L1918.71 278.508C1921.08 279.121 1923.2 280.218 1925 281.679C1926.55 282.932 1927.91 284.49 1929.01 286.331C1929.17 286.602 1929.32 286.879 1929.47 287.162L1929.63 287.468C1931.71 291.612 1932.31 296.669 1930.92 301.714L1912.76 367.912C1909.93 378.253 1899.86 384.629 1890.28 382.153C1880.69 379.678 1875.23 369.288 1878.06 358.947L1883.82 337.952L1691.65 459.655C1651.07 485.357 1603.28 473.01 1581.24 431.128C1559.19 389.247 1573.34 337.673 1613.92 311.972L1788.83 201.203C1811.85 186.624 1819.49 158.76 1806.99 135.005C1794.48 111.249 1768.66 104.578 1745.64 119.156L1616.14 201.175ZM1578 203.447C1585.16 217.04 1580.28 234.823 1567.11 243.165C1553.94 251.508 1537.46 247.25 1530.3 233.656C1523.15 220.063 1528.03 202.28 1541.2 193.938C1554.37 185.595 1570.85 189.853 1578 203.447Z" fill="white" stroke="white" stroke-opacity="0.5" stroke-width="2"/>
</svg>
