<svg width="3217" height="535" viewBox="0 0 3217 535" fill="none" xmlns="http://www.w3.org/2000/svg">
<path d="M175.332 107.709V26.8496H429.043V107.709H343.496V437.006H260.879V107.709H175.332ZM456.441 437.006V103.021H536.129V139.936C549.801 122.357 568.355 110.248 591.793 103.607C599.996 101.264 608.199 100.092 616.402 100.092H637.496L619.332 178.607C594.723 178.998 573.434 189.74 555.465 210.834C542.574 226.068 536.129 241.889 536.129 258.295V437.006H456.441ZM659.621 348.529V103.021H739.309V339.154C740.09 353.998 749.074 361.615 766.262 362.006V439.936C727.98 439.936 698.098 424.896 676.613 394.818C665.285 378.803 659.621 363.373 659.621 348.529ZM793.215 439.936V362.006C810.012 360.053 819.191 352.436 820.754 339.154V103.021H900.441V348.529C900.441 366.889 891.848 385.443 874.66 404.193C852.785 427.631 825.637 439.545 793.215 439.936ZM928.426 349.115L1001.08 335.639C1001.08 348.529 1007.72 357.709 1021 363.178C1025.69 364.74 1029.99 365.717 1033.89 366.107V439.936C988.582 439.936 957.137 423.92 939.559 391.889C932.137 378.607 928.426 364.35 928.426 349.115ZM931.941 194.428C931.941 158.1 948.934 131.146 982.918 113.568C999.715 104.584 1016.32 100.092 1032.72 100.092V172.748C1013.58 173.139 1004.01 180.365 1004.01 194.428C1004.01 209.271 1021.98 222.357 1057.92 233.686C1071.2 237.982 1086.82 242.084 1104.79 245.99C1131.75 251.068 1150.89 266.107 1162.21 291.107C1168.07 303.998 1171 318.256 1171 333.881C1171 374.506 1154.99 404.389 1122.96 423.529C1104.6 434.467 1083.7 439.936 1060.26 439.936V366.107C1073.93 366.107 1084.09 361.615 1090.73 352.631C1093.86 348.334 1095.42 343.646 1095.42 338.568C1095.42 326.459 1080.57 315.912 1050.89 306.928C1046.2 305.756 1038.97 303.803 1029.21 301.068C1008.5 295.6 994.246 291.107 986.434 287.592C957.918 273.139 940.73 251.85 934.871 223.725C932.918 214.35 931.941 204.584 931.941 194.428ZM1059.09 172.748L1059.68 100.092C1094.83 100.092 1123.15 112.982 1144.64 138.764C1158.31 155.561 1165.14 173.334 1165.14 192.084L1093.07 204.389C1093.07 186.811 1083.7 176.459 1064.95 173.334C1062.61 172.943 1060.65 172.748 1059.09 172.748ZM1184.93 178.607V103.021H1225.94V17.4746H1304.46V103.021H1343.13V179.193H1304.46V334.467C1305.24 348.529 1312.46 355.756 1326.14 356.146H1343.13L1360.71 437.006H1325.55C1274.38 437.006 1243.13 417.67 1231.8 378.998C1227.89 364.936 1225.94 348.139 1225.94 328.607V178.607H1184.93ZM2058.3 437.006V26.8496H2140.92V437.006H2058.3ZM2172.56 437.006V354.389C2181.15 354.389 2189.16 350.873 2196.58 343.842C2202.05 337.592 2204.98 330.17 2205.37 321.576V142.279C2205.37 134.467 2202.05 126.85 2195.41 119.428C2189.16 113.178 2181.54 109.857 2172.56 109.467V26.8496C2215.92 26.8496 2248.73 46.1855 2271 84.8574C2282.32 104.779 2287.99 123.92 2287.99 142.279V321.576C2287.99 366.107 2268.26 399.311 2228.81 421.186C2209.28 431.732 2190.53 437.006 2172.56 437.006ZM2328.86 437.006V103.021H2408.55V139.936C2422.22 122.357 2440.78 110.248 2464.21 103.607C2472.42 101.264 2480.62 100.092 2488.82 100.092H2509.92L2491.75 178.607C2467.14 178.998 2445.86 189.74 2427.89 210.834C2415 226.068 2408.55 241.889 2408.55 258.295V437.006H2328.86ZM2539.07 55.5605C2539.07 39.5449 2546.3 27.4355 2560.75 19.2324C2567.39 15.3262 2574.43 13.373 2581.85 13.373C2598.25 13.373 2610.56 20.5996 2618.76 35.0527C2622.28 41.6934 2624.04 48.5293 2624.04 55.5605C2624.04 71.9668 2616.81 84.2715 2602.36 92.4746C2595.71 95.9902 2588.88 97.748 2581.85 97.748C2565.05 97.748 2552.55 90.3262 2544.35 75.4824C2540.83 69.2324 2539.07 62.5918 2539.07 55.5605ZM2543.18 437.006V120.6H2621.69V437.006H2543.18ZM2651.43 103.021H2738.74L2824.29 356.146L2797.92 437.006H2753.39L2651.43 103.021ZM2790.89 183.295L2815.5 103.021H2902.8L2840.11 302.826H2832.49L2790.89 183.295ZM2923.17 346.186V192.67C2923.56 173.529 2932.35 154.779 2949.54 136.42C2970.63 114.545 2996.41 103.412 3026.88 103.021V176.85C3015.55 176.85 3007.74 181.732 3003.44 191.498C3002.27 193.842 3001.68 195.99 3001.68 197.943V227.24H3088.99V198.529C3088.6 184.076 3078.44 176.85 3058.52 176.85V103.021C3087.04 103.021 3112.04 112.787 3133.52 132.318C3152.27 149.506 3161.84 169.428 3162.23 192.084V302.826H3001.68V346.186C3004.42 357.514 3013.01 363.764 3027.46 364.936V437.006C2990.75 437.006 2961.64 421.967 2940.16 391.889C2928.83 375.873 2923.17 360.639 2923.17 346.186ZM3058.52 437.006V365.521C3079.61 365.131 3093.09 355.17 3098.95 335.639L3162.82 359.662C3156.96 384.662 3142.11 404.779 3118.29 420.014C3099.93 431.342 3080 437.006 3058.52 437.006Z" fill="#11CC3A"/>
<path fill-rule="evenodd" clip-rule="evenodd" d="M1625.35 176.684C1630.52 201.469 1619.75 228.571 1597.27 242.531C1569.87 259.549 1535.44 250.588 1520.37 222.514C1505.3 194.441 1515.3 157.886 1542.71 140.868C1565.18 126.909 1592.39 130.429 1609.76 147.637L1725.22 75.9271C1761.41 53.4561 1804.2 64.5951 1824.1 101.663C1843.99 138.73 1831.56 184.165 1795.38 206.636L1639.44 303.483C1618.91 316.229 1612.2 340.777 1623.48 361.802C1634.77 382.828 1657.89 388.846 1678.41 376.1L1849.75 269.693L1832.33 265.159C1823.75 262.925 1818.81 253.73 1821.3 244.62C1823.8 235.51 1832.77 229.935 1841.35 232.169L1896.28 246.466C1898.4 247.019 1900.3 247.998 1901.92 249.296C1903.31 250.41 1904.54 251.791 1905.53 253.421C1905.67 253.661 1905.81 253.906 1905.94 254.157L1906.09 254.427C1907.97 258.095 1908.52 262.56 1907.3 267.005L1891.35 325.324C1888.86 334.434 1879.88 340.008 1871.3 337.775C1862.72 335.542 1857.79 326.346 1860.28 317.236L1865.34 298.74L1694 405.146C1657.82 427.617 1615.03 416.478 1595.13 379.411C1575.24 342.343 1587.67 296.908 1623.85 274.437L1779.79 177.59C1800.31 164.844 1807.03 140.297 1795.74 119.271C1784.46 98.2455 1761.34 92.2275 1740.81 104.974L1625.35 176.684ZM1591.25 178.493C1597.71 190.524 1593.43 206.19 1581.68 213.484C1569.94 220.778 1555.18 216.937 1548.72 204.906C1542.27 192.874 1546.55 177.208 1558.3 169.914C1570.04 162.621 1584.8 166.461 1591.25 178.493Z" fill="white"/>
</svg>
